<svg width="497.53554687499997px" height="122px" xmlns="http://www.w3.org/2000/svg" viewBox="1.232226562500017 14 497.53554687499997 122" style="background: rgba(0, 0, 0, 0);" preserveAspectRatio="xMidYMid"><defs><linearGradient id="editing-shiny-gradient" x1="0.04322727117869957" x2="0.9567727288213004" y1="0.2966316784620999" y2="0.7033683215379001" gradientUnits="objectBoundingBox"><stop offset="0.0" stop-color="#ffb200"></stop><stop offset="0.5" stop-color="#e10057"></stop><stop offset="1.0" stop-color="#5A1A80"></stop></linearGradient><linearGradient id="editing-shiny-gradient2" x1="0" x2="0" y1="0" y2="1"><stop offset="0.2" stop-color="#fff" stop-opacity="0.8"></stop><stop offset="0.8" stop-color="#fff" stop-opacity="0"></stop></linearGradient><filter id="editing-shiny2" x="-100%" y="-100%" width="300%" height="300%"><feMorphology operator="erode" radius="2"></feMorphology></filter><filter id="editing-shiny" x="-100%" y="-100%" width="300%" height="300%"><feFlood flood-color="#fff" result="flood"></feFlood><feConvolveMatrix in="SourceGraphic" result="conv" order="8,8" divisor="1" kernelMatrix="0 0 0 0 0 0 0 0 0 0 0 1 1 0 0 0 0 0 0 1 1 0 0 0 0 0 1 0 0 1 0 0 0 0 1 0 0 1 0 0 0 1 0 0 0 0 1 0 0 1 1 0 0 1 1 0 0 0 0 1 1 0 0 0 "></feConvolveMatrix><feOffset dx="0" dy="4" in="conv" result="offset"></feOffset><feComposite operator="in" in="flood" in2="offset" result="comp"></feComposite><feGaussianBlur in="offset" stdDeviation="3" result="shadow"></feGaussianBlur><feColorMatrix in="shadow" type="matrix" values="0.7 0 0 0 0  0 0.7 0 0 0  0 0 0.7 0 0  0 0 0 0.3 0" result="dark-shadow"></feColorMatrix><feOffset dx="0" dy="4" in="dark-shadow" result="offset-shadow"></feOffset><feOffset dx="0" dy="2" in="conv" result="offset-2"></feOffset><feComposite operator="out" in="offset" in2="offset-2" result="edge-diff"></feComposite><feGaussianBlur in="edge-diff" stdDeviation="1" result="edge-blur"></feGaussianBlur><feColorMatrix in="edge-blur" result="edge-shadow" type="matrix" values="0 0 0 0 0  0 0 0 0 0  0 0 0 0 0  0 0 0 0.5 0"></feColorMatrix><feComposite operator="in" in="edge-shadow" in2="offset" result="edge-shadow-in"></feComposite><feOffset dx="0" dy="1" in="edge-shadow-in" result="edge-shadow-final"></feOffset><feMerge result="out"><feMergeNode in="offset-shadow"></feMergeNode><feMergeNode in="comp"></feMergeNode><feMergeNode in="edge-shadow-final"></feMergeNode><feMergeNode in="SourceGraphic"></feMergeNode></feMerge></filter></defs><g filter="url(#editing-shiny)"><g transform="translate(76.90618681907654, 104.44000053405762)"><path d="M33.28-7.10L33.28-7.10L33.28-7.10Q33.28-4.29 36.16-3.46L36.16-3.46L36.16-3.46Q35.46-1.09 32.70 0.19L32.70 0.19L32.70 0.19Q30.40 1.28 27.87 1.28L27.87 1.28L27.87 1.28Q25.34 1.28 24.03 0.61L24.03 0.61L24.03 0.61Q22.72-0.06 22.02-1.15L22.02-1.15L22.02-1.15Q20.86-2.82 20.86-5.95L20.86-5.95L20.86-5.95Q20.86-7.81 21.89-12.93L21.89-12.93L22.78-17.79L22.78-17.79Q23.87-23.36 23.87-25.41L23.87-25.41L23.87-25.41Q23.87-28.99 21.89-28.99L21.89-28.99L21.89-28.99Q19.39-28.99 17.79-25.34L17.79-25.34L17.79-25.34Q17.15-23.94 16.70-21.82L16.70-21.82L12.35 0L-0.51 1.28L8.51-44.80L21.38-46.08L20.86-43.52L20.86-43.52Q19.07-33.66 17.54-30.34L17.54-30.34L17.54-30.34Q21.12-33.92 27.71-33.92L27.71-33.92L27.71-33.92Q34.69-33.92 35.97-29.31L35.97-29.31L35.97-29.31Q36.42-27.84 36.42-26.56L36.42-26.56L36.42-26.56Q36.42-25.28 36.32-24.29L36.32-24.29L36.32-24.29Q36.22-23.30 35.90-21.50L35.90-21.50L35.07-16.90L33.60-9.66L33.60-9.66Q33.28-8.19 33.28-7.10ZM71.17-4.38L71.17-4.38L71.17-4.38Q68.48-1.66 64.80-0.19L64.80-0.19L64.80-0.19Q61.12 1.28 57.47 1.28L57.47 1.28L57.47 1.28Q53.82 1.28 52.54 0.64L52.54 0.64L50.56 11.52L37.57 12.80L46.40-32.64L56.83-33.73L56-29.31L56-29.31Q58.69-33.86 64.26-33.86L64.26-33.86L64.26-33.86Q70.53-33.86 73.86-29.82L73.86-29.82L73.86-29.82Q76.80-26.18 76.80-20.61L76.80-20.61L76.80-20.61Q76.80-15.04 75.33-11.07L75.33-11.07L75.33-11.07Q73.86-7.10 71.17-4.38ZM56.70-22.34L53.31-3.58L53.31-3.58Q54.66-2.43 56.32-2.43L56.32-2.43L56.32-2.43Q57.98-2.43 58.94-3.07L58.94-3.07L58.94-3.07Q59.90-3.71 60.61-4.99L60.61-4.99L60.61-4.99Q62.53-8.45 64.06-18.94L64.06-18.94L64.06-18.94Q64.51-22.02 64.51-25.02L64.51-25.02L64.51-25.02Q64.51-28.03 63.84-28.99L63.84-28.99L63.84-28.99Q63.17-29.95 61.89-29.95L61.89-29.95L61.89-29.95Q57.98-29.95 56.70-22.34L56.70-22.34ZM107.71 1.28L107.71 1.28L107.71 1.28Q99.97 1.28 99.97-4.74L99.97-4.74L99.97-4.74Q100.03-6.40 100.54-9.22L100.54-9.22L101.70-15.10L101.70-15.10Q103.42-23.42 103.42-25.28L103.42-25.28L103.42-25.28Q103.42-28.99 101.25-28.99L101.25-28.99L101.25-28.99Q97.60-28.99 95.68-19.46L95.68-19.46L91.90 0L79.04 1.28L85.70-32.70L96.19-33.92L95.17-27.65L95.17-27.65Q98.18-33.92 107.39-33.92L107.39-33.92L107.39-33.92Q111.87-33.92 113.76-32.03L113.76-32.03L113.76-32.03Q115.65-30.14 115.65-25.92L115.65-25.92L115.65-25.92Q115.65-21.95 113.60-12.67L113.60-12.67L113.60-12.67Q112.64-8.51 112.64-6.94L112.64-6.94L112.64-6.94Q112.64-5.38 113.50-4.48L113.50-4.48L113.50-4.48Q114.37-3.58 115.65-3.46L115.65-3.46L115.65-3.46Q115.01-1.28 112.80 0L112.80 0L112.80 0Q110.59 1.28 107.71 1.28ZM123.55-1.92L123.55-1.92L123.55-1.92Q122.05-3.58 121.38-6.21L121.38-6.21L121.38-6.21Q120.70-8.83 120.70-13.12L120.70-13.12L120.70-13.12Q120.70-17.41 122.18-21.31L122.18-21.31L122.18-21.31Q123.65-25.22 126.34-28.03L126.34-28.03L126.34-28.03Q131.84-33.92 140.93-33.92L140.93-33.92L140.93-33.92Q144.19-33.92 146.56-32.83L146.56-32.83L157.50-33.92L152.77-8.96L152.77-8.96Q152.58-8.19 152.58-6.78L152.58-6.78L152.58-6.78Q152.58-5.38 153.44-4.48L153.44-4.48L153.44-4.48Q154.30-3.58 155.58-3.46L155.58-3.46L155.58-3.46Q154.94-1.28 152.61 0L152.61 0L152.61 0Q150.27 1.28 147.65 1.28L147.65 1.28L147.65 1.28Q145.02 1.28 143.26 0.29L143.26 0.29L143.26 0.29Q141.50-0.70 140.99-2.37L140.99-2.37L140.99-2.37Q139.97-0.77 137.79 0.26L137.79 0.26L137.79 0.26Q135.62 1.28 132.70 1.28L132.70 1.28L132.70 1.28Q129.79 1.28 127.42 0.51L127.42 0.51L127.42 0.51Q125.06-0.26 123.55-1.92ZM137.06-27.90L137.06-27.90L137.06-27.90Q136.32-26.75 135.68-24.80L135.68-24.80L135.68-24.80Q135.04-22.85 133.98-17.63L133.98-17.63L133.98-17.63Q132.93-12.42 132.93-8.70L132.93-8.70L132.93-8.70Q132.93-4.99 133.50-3.90L133.50-3.90L133.50-3.90Q134.08-2.82 135.10-2.82L135.10-2.82L135.10-2.82Q137.15-2.82 138.66-4.77L138.66-4.77L138.66-4.77Q140.16-6.72 140.74-10.18L140.74-10.18L144.13-28.93L144.13-28.93Q142.78-30.08 141.22-30.08L141.22-30.08L141.22-30.08Q139.65-30.08 138.72-29.57L138.72-29.57L138.72-29.57Q137.79-29.06 137.06-27.90ZM192.13-26.62L192.13-26.62L192.13-26.62Q192.13-23.94 189.89-22.27L189.89-22.27L189.89-22.27Q187.65-20.61 184-20.61L184-20.61L184-20.61Q182.46-20.61 181.57-21.06L181.57-21.06L181.57-21.06Q182.27-22.72 182.50-24.80L182.50-24.80L182.50-24.80Q182.72-26.88 182.72-27.46L182.72-27.46L182.72-27.46Q182.72-30.14 180.86-30.14L180.86-30.14L180.86-30.14Q179.58-30.14 178.14-28.54L178.14-28.54L178.14-28.54Q176.70-26.94 175.49-24.45L175.49-24.45L175.49-24.45Q172.80-18.69 172.80-12.86L172.80-12.86L172.80-12.86Q172.80-9.66 174.02-8.22L174.02-8.22L174.02-8.22Q175.23-6.78 177.92-6.78L177.92-6.78L177.92-6.78Q181.63-6.78 184.58-9.86L184.58-9.86L184.58-9.86Q185.41-10.82 185.86-11.90L185.86-11.90L185.86-11.90Q188.29-10.62 188.29-7.10L188.29-7.10L188.29-7.10Q188.29-3.52 184.32-1.15L184.32-1.15L184.32-1.15Q180.22 1.28 173.70 1.28L173.70 1.28L173.70 1.28Q160.70 1.28 160.70-12.48L160.70-12.48L160.70-12.48Q160.70-22.53 166.40-28.29L166.40-28.29L166.40-28.29Q171.90-33.92 182.02-33.92L182.02-33.92L182.02-33.92Q192.13-33.92 192.13-26.62ZM219.78-10.82L219.78-10.82L219.78-10.82Q221.38-9.73 221.38-7.33L221.38-7.33L221.38-7.33Q221.38-4.93 220.16-3.39L220.16-3.39L220.16-3.39Q218.94-1.86 216.96-0.83L216.96-0.83L216.96-0.83Q212.86 1.28 208.45 1.28L208.45 1.28L208.45 1.28Q204.03 1.28 201.44 0.32L201.44 0.32L201.44 0.32Q198.85-0.64 197.12-2.43L197.12-2.43L197.12-2.43Q193.73-5.82 193.73-12.03L193.73-12.03L193.73-12.03Q193.73-21.70 198.98-27.58L198.98-27.58L198.98-27.58Q204.61-33.92 214.40-33.92L214.40-33.92L214.40-33.92Q220.48-33.92 223.49-31.36L223.49-31.36L223.49-31.36Q225.73-29.44 225.73-26.30L225.73-26.30L225.73-26.30Q225.73-15.04 206.27-15.04L206.27-15.04L206.27-15.04Q206.02-13.38 206.02-11.97L206.02-11.97L206.02-11.97Q206.02-9.02 207.33-7.90L207.33-7.90L207.33-7.90Q208.64-6.78 211.07-6.78L211.07-6.78L211.07-6.78Q213.50-6.78 216.10-7.90L216.10-7.90L216.10-7.90Q218.69-9.02 219.78-10.82ZM206.72-17.79L206.72-17.79L206.72-17.79Q211.26-17.79 213.89-20.61L213.89-20.61L213.89-20.61Q216.51-23.30 216.51-27.58L216.51-27.58L216.51-27.58Q216.51-29.06 215.97-29.86L215.97-29.86L215.97-29.86Q215.42-30.66 214.34-30.66L214.34-30.66L214.34-30.66Q213.25-30.66 212.32-30.24L212.32-30.24L212.32-30.24Q211.39-29.82 210.43-28.42L210.43-28.42L210.43-28.42Q208.06-25.22 206.72-17.79ZM240.96 0L227.33 0L234.62-38.91L235.33-42.24L249.02-42.24L240.96 0ZM266.94-3.78L266.94-3.78L266.94-3.78Q265.22 1.28 258.56 1.28L258.56 1.28L258.56 1.28Q253.63 1.28 250.24-4.61L250.24-4.61L250.24-4.61Q246.78-10.50 246.14-20.10L246.14-20.10L246.14-20.10Q253.18-32.96 258.05-38.27L258.05-38.27L258.05-38.27Q262.72-43.33 267.58-43.33L267.58-43.33L267.58-43.33Q270.21-43.33 272.10-41.92L272.10-41.92L272.10-41.92Q273.98-40.51 274.43-38.27L274.43-38.27L274.43-38.27Q272.26-37.38 271.23-36.67L271.23-36.67L271.23-36.67Q268.67-34.75 265.22-30.46L265.22-30.46L259.39-23.49L259.39-23.49Q257.98-21.82 257.41-21.06L257.41-21.06L257.41-21.06Q258.37-15.68 261.25-10.37L261.25-10.37L261.25-10.37Q264-5.31 266.94-3.78ZM297.41-42.69L297.41-42.69L297.41-42.69Q313.09-42.69 313.09-31.62L313.09-31.62L313.09-31.62Q313.09-25.54 309.18-21.89L309.18-21.89L309.18-21.89Q305.34-18.24 298.62-18.24L298.62-18.24L298.62-18.24Q295.49-18.24 293.06-20.03L293.06-20.03L293.06-20.03Q291.90-20.80 291.14-21.82L291.14-21.82L291.14-21.82Q295.81-21.82 298.27-24.67L298.27-24.67L298.27-24.67Q300.74-27.52 300.74-33.09L300.74-33.09L300.74-33.09Q300.74-38.66 295.23-38.66L295.23-38.66L293.70-38.66L293.70-38.66Q293.31-38.66 292.99-38.59L292.99-38.59L285.63 0L271.74 0L279.62-41.92L279.62-41.92Q286.46-42.56 290.43-42.62L290.43-42.62L290.43-42.62Q294.40-42.69 297.41-42.69ZM342.53-33.92L342.53-33.92L342.53-33.92Q337.34-33.92 333.57-35.65L333.57-35.65L331.52-25.28L343.87-25.28L343.87-25.28Q343.87-21.89 342.18-19.74L342.18-19.74L342.18-19.74Q340.48-17.60 337.41-17.60L337.41-17.60L337.41-17.60Q334.08-17.60 331.01-18.82L331.01-18.82L331.01-18.82Q330.37-19.07 330.30-19.14L330.30-19.14L326.66 0L312.70 0L320.83-42.24L349.38-42.24L349.38-42.24Q349.38-38.34 347.55-36.13L347.55-36.13L347.55-36.13Q345.73-33.92 342.53-33.92Z" fill="url(#editing-shiny-gradient)"></path></g></g><g filter="url(#editing-shiny2)"><g transform="translate(76.880300283432, 104.44000816345215)"><path d="M33.28-7.10L33.28-7.10L33.28-7.10Q33.28-4.29 36.16-3.46L36.16-3.46L36.16-3.46Q35.46-1.09 32.70 0.19L32.70 0.19L32.70 0.19Q30.40 1.28 27.87 1.28L27.87 1.28L27.87 1.28Q25.34 1.28 24.03 0.61L24.03 0.61L24.03 0.61Q22.72-0.06 22.02-1.15L22.02-1.15L22.02-1.15Q20.86-2.82 20.86-5.95L20.86-5.95L20.86-5.95Q20.86-7.81 21.89-12.93L21.89-12.93L22.78-17.79L22.78-17.79Q23.87-23.36 23.87-25.41L23.87-25.41L23.87-25.41Q23.87-28.99 21.89-28.99L21.89-28.99L21.89-28.99Q19.39-28.99 17.79-25.34L17.79-25.34L17.79-25.34Q17.15-23.94 16.70-21.82L16.70-21.82L12.35 0L-0.51 1.28L8.51-44.80L21.38-46.08L20.86-43.52L20.86-43.52Q19.07-33.66 17.54-30.34L17.54-30.34L17.54-30.34Q21.12-33.92 27.71-33.92L27.71-33.92L27.71-33.92Q34.69-33.92 35.97-29.31L35.97-29.31L35.97-29.31Q36.42-27.84 36.42-26.56L36.42-26.56L36.42-26.56Q36.42-25.28 36.32-24.29L36.32-24.29L36.32-24.29Q36.22-23.30 35.90-21.50L35.90-21.50L35.07-16.90L33.60-9.66L33.60-9.66Q33.28-8.19 33.28-7.10ZM71.17-4.38L71.17-4.38L71.17-4.38Q68.48-1.66 64.80-0.19L64.80-0.19L64.80-0.19Q61.12 1.28 57.47 1.28L57.47 1.28L57.47 1.28Q53.82 1.28 52.54 0.64L52.54 0.64L50.56 11.52L37.57 12.80L46.40-32.64L56.83-33.73L56-29.31L56-29.31Q58.69-33.86 64.26-33.86L64.26-33.86L64.26-33.86Q70.53-33.86 73.86-29.82L73.86-29.82L73.86-29.82Q76.80-26.18 76.80-20.61L76.80-20.61L76.80-20.61Q76.80-15.04 75.33-11.07L75.33-11.07L75.33-11.07Q73.86-7.10 71.17-4.38ZM56.70-22.34L53.31-3.58L53.31-3.58Q54.66-2.43 56.32-2.43L56.32-2.43L56.32-2.43Q57.98-2.43 58.94-3.07L58.94-3.07L58.94-3.07Q59.90-3.71 60.61-4.99L60.61-4.99L60.61-4.99Q62.53-8.45 64.06-18.94L64.06-18.94L64.06-18.94Q64.51-22.02 64.51-25.02L64.51-25.02L64.51-25.02Q64.51-28.03 63.84-28.99L63.84-28.99L63.84-28.99Q63.17-29.95 61.89-29.95L61.89-29.95L61.89-29.95Q57.98-29.95 56.70-22.34L56.70-22.34ZM107.71 1.28L107.71 1.28L107.71 1.28Q99.97 1.28 99.97-4.74L99.97-4.74L99.97-4.74Q100.03-6.40 100.54-9.22L100.54-9.22L101.70-15.10L101.70-15.10Q103.42-23.42 103.42-25.28L103.42-25.28L103.42-25.28Q103.42-28.99 101.25-28.99L101.25-28.99L101.25-28.99Q97.60-28.99 95.68-19.46L95.68-19.46L91.90 0L79.04 1.28L85.70-32.70L96.19-33.92L95.17-27.65L95.17-27.65Q98.18-33.92 107.39-33.92L107.39-33.92L107.39-33.92Q111.87-33.92 113.76-32.03L113.76-32.03L113.76-32.03Q115.65-30.14 115.65-25.92L115.65-25.92L115.65-25.92Q115.65-21.95 113.60-12.67L113.60-12.67L113.60-12.67Q112.64-8.51 112.64-6.94L112.64-6.94L112.64-6.94Q112.64-5.38 113.50-4.48L113.50-4.48L113.50-4.48Q114.37-3.58 115.65-3.46L115.65-3.46L115.65-3.46Q115.01-1.28 112.80 0L112.80 0L112.80 0Q110.59 1.28 107.71 1.28ZM123.55-1.92L123.55-1.92L123.55-1.92Q122.05-3.58 121.38-6.21L121.38-6.21L121.38-6.21Q120.70-8.83 120.70-13.12L120.70-13.12L120.70-13.12Q120.70-17.41 122.18-21.31L122.18-21.31L122.18-21.31Q123.65-25.22 126.34-28.03L126.34-28.03L126.34-28.03Q131.84-33.92 140.93-33.92L140.93-33.92L140.93-33.92Q144.19-33.92 146.56-32.83L146.56-32.83L157.50-33.92L152.77-8.96L152.77-8.96Q152.58-8.19 152.58-6.78L152.58-6.78L152.58-6.78Q152.58-5.38 153.44-4.48L153.44-4.48L153.44-4.48Q154.30-3.58 155.58-3.46L155.58-3.46L155.58-3.46Q154.94-1.28 152.61 0L152.61 0L152.61 0Q150.27 1.28 147.65 1.28L147.65 1.28L147.65 1.28Q145.02 1.28 143.26 0.29L143.26 0.29L143.26 0.29Q141.50-0.70 140.99-2.37L140.99-2.37L140.99-2.37Q139.97-0.77 137.79 0.26L137.79 0.26L137.79 0.26Q135.62 1.28 132.70 1.28L132.70 1.28L132.70 1.28Q129.79 1.28 127.42 0.51L127.42 0.51L127.42 0.51Q125.06-0.26 123.55-1.92ZM137.06-27.90L137.06-27.90L137.06-27.90Q136.32-26.75 135.68-24.80L135.68-24.80L135.68-24.80Q135.04-22.85 133.98-17.63L133.98-17.63L133.98-17.63Q132.93-12.42 132.93-8.70L132.93-8.70L132.93-8.70Q132.93-4.99 133.50-3.90L133.50-3.90L133.50-3.90Q134.08-2.82 135.10-2.82L135.10-2.82L135.10-2.82Q137.15-2.82 138.66-4.77L138.66-4.77L138.66-4.77Q140.16-6.72 140.74-10.18L140.74-10.18L144.13-28.93L144.13-28.93Q142.78-30.08 141.22-30.08L141.22-30.08L141.22-30.08Q139.65-30.08 138.72-29.57L138.72-29.57L138.72-29.57Q137.79-29.06 137.06-27.90ZM192.13-26.62L192.13-26.62L192.13-26.62Q192.13-23.94 189.89-22.27L189.89-22.27L189.89-22.27Q187.65-20.61 184-20.61L184-20.61L184-20.61Q182.46-20.61 181.57-21.06L181.57-21.06L181.57-21.06Q182.27-22.72 182.50-24.80L182.50-24.80L182.50-24.80Q182.72-26.88 182.72-27.46L182.72-27.46L182.72-27.46Q182.72-30.14 180.86-30.14L180.86-30.14L180.86-30.14Q179.58-30.14 178.14-28.54L178.14-28.54L178.14-28.54Q176.70-26.94 175.49-24.45L175.49-24.45L175.49-24.45Q172.80-18.69 172.80-12.86L172.80-12.86L172.80-12.86Q172.80-9.66 174.02-8.22L174.02-8.22L174.02-8.22Q175.23-6.78 177.92-6.78L177.92-6.78L177.92-6.78Q181.63-6.78 184.58-9.86L184.58-9.86L184.58-9.86Q185.41-10.82 185.86-11.90L185.86-11.90L185.86-11.90Q188.29-10.62 188.29-7.10L188.29-7.10L188.29-7.10Q188.29-3.52 184.32-1.15L184.32-1.15L184.32-1.15Q180.22 1.28 173.70 1.28L173.70 1.28L173.70 1.28Q160.70 1.28 160.70-12.48L160.70-12.48L160.70-12.48Q160.70-22.53 166.40-28.29L166.40-28.29L166.40-28.29Q171.90-33.92 182.02-33.92L182.02-33.92L182.02-33.92Q192.13-33.92 192.13-26.62ZM219.78-10.82L219.78-10.82L219.78-10.82Q221.38-9.73 221.38-7.33L221.38-7.33L221.38-7.33Q221.38-4.93 220.16-3.39L220.16-3.39L220.16-3.39Q218.94-1.86 216.96-0.83L216.96-0.83L216.96-0.83Q212.86 1.28 208.45 1.28L208.45 1.28L208.45 1.28Q204.03 1.28 201.44 0.32L201.44 0.32L201.44 0.32Q198.85-0.64 197.12-2.43L197.12-2.43L197.12-2.43Q193.73-5.82 193.73-12.03L193.73-12.03L193.73-12.03Q193.73-21.70 198.98-27.58L198.98-27.58L198.98-27.58Q204.61-33.92 214.40-33.92L214.40-33.92L214.40-33.92Q220.48-33.92 223.49-31.36L223.49-31.36L223.49-31.36Q225.73-29.44 225.73-26.30L225.73-26.30L225.73-26.30Q225.73-15.04 206.27-15.04L206.27-15.04L206.27-15.04Q206.02-13.38 206.02-11.97L206.02-11.97L206.02-11.97Q206.02-9.02 207.33-7.90L207.33-7.90L207.33-7.90Q208.64-6.78 211.07-6.78L211.07-6.78L211.07-6.78Q213.50-6.78 216.10-7.90L216.10-7.90L216.10-7.90Q218.69-9.02 219.78-10.82ZM206.72-17.79L206.72-17.79L206.72-17.79Q211.26-17.79 213.89-20.61L213.89-20.61L213.89-20.61Q216.51-23.30 216.51-27.58L216.51-27.58L216.51-27.58Q216.51-29.06 215.97-29.86L215.97-29.86L215.97-29.86Q215.42-30.66 214.34-30.66L214.34-30.66L214.34-30.66Q213.25-30.66 212.32-30.24L212.32-30.24L212.32-30.24Q211.39-29.82 210.43-28.42L210.43-28.42L210.43-28.42Q208.06-25.22 206.72-17.79ZM240.96 0L227.33 0L234.62-38.91L235.33-42.24L249.02-42.24L240.96 0ZM266.94-3.78L266.94-3.78L266.94-3.78Q265.22 1.28 258.56 1.28L258.56 1.28L258.56 1.28Q253.63 1.28 250.24-4.61L250.24-4.61L250.24-4.61Q246.78-10.50 246.14-20.10L246.14-20.10L246.14-20.10Q253.18-32.96 258.05-38.27L258.05-38.27L258.05-38.27Q262.72-43.33 267.58-43.33L267.58-43.33L267.58-43.33Q270.21-43.33 272.10-41.92L272.10-41.92L272.10-41.92Q273.98-40.51 274.43-38.27L274.43-38.27L274.43-38.27Q272.26-37.38 271.23-36.67L271.23-36.67L271.23-36.67Q268.67-34.75 265.22-30.46L265.22-30.46L259.39-23.49L259.39-23.49Q257.98-21.82 257.41-21.06L257.41-21.06L257.41-21.06Q258.37-15.68 261.25-10.37L261.25-10.37L261.25-10.37Q264-5.31 266.94-3.78ZM297.41-42.69L297.41-42.69L297.41-42.69Q313.09-42.69 313.09-31.62L313.09-31.62L313.09-31.62Q313.09-25.54 309.18-21.89L309.18-21.89L309.18-21.89Q305.34-18.24 298.62-18.24L298.62-18.24L298.62-18.24Q295.49-18.24 293.06-20.03L293.06-20.03L293.06-20.03Q291.90-20.80 291.14-21.82L291.14-21.82L291.14-21.82Q295.81-21.82 298.27-24.67L298.27-24.67L298.27-24.67Q300.74-27.52 300.74-33.09L300.74-33.09L300.74-33.09Q300.74-38.66 295.23-38.66L295.23-38.66L293.70-38.66L293.70-38.66Q293.31-38.66 292.99-38.59L292.99-38.59L285.63 0L271.74 0L279.62-41.92L279.62-41.92Q286.46-42.56 290.43-42.62L290.43-42.62L290.43-42.62Q294.40-42.69 297.41-42.69ZM342.53-33.92L342.53-33.92L342.53-33.92Q337.34-33.92 333.57-35.65L333.57-35.65L331.52-25.28L343.87-25.28L343.87-25.28Q343.87-21.89 342.18-19.74L342.18-19.74L342.18-19.74Q340.48-17.60 337.41-17.60L337.41-17.60L337.41-17.60Q334.08-17.60 331.01-18.82L331.01-18.82L331.01-18.82Q330.37-19.07 330.30-19.14L330.30-19.14L326.66 0L312.70 0L320.83-42.24L349.38-42.24L349.38-42.24Q349.38-38.34 347.55-36.13L347.55-36.13L347.55-36.13Q345.73-33.92 342.53-33.92Z" fill="url(#editing-shiny-gradient2)"></path></g></g><style>text {
  font-size: 64px;
  font-family: Arial Black;
  dominant-baseline: central;
  text-anchor: middle;
}</style></svg>